<mxfile host="app.diagrams.net" modified="2023-07-19T22:37:19.385Z" agent="Mozilla/5.0 (Windows NT 10.0; Win64; x64) AppleWebKit/537.36 (KHTML, like Gecko) Chrome/114.0.0.0 Safari/537.36 OPR/100.0.0.0" etag="U8tLsmI1YLYQkhzLfsk3" version="21.6.3" type="github">
  <diagram name="Page-1" id="ZlM_A8k6TZbqFOeZ7nO7">
    <mxGraphModel dx="1393" dy="758" grid="1" gridSize="10" guides="1" tooltips="1" connect="1" arrows="1" fold="1" page="1" pageScale="1" pageWidth="850" pageHeight="1100" math="0" shadow="0">
      <root>
        <mxCell id="0" />
        <mxCell id="1" parent="0" />
        <mxCell id="ngXh2x4NFbDctlyxZlGq-3" value="" style="rounded=0;whiteSpace=wrap;html=1;rotation=90;" vertex="1" parent="1">
          <mxGeometry x="-20" y="300" width="480" height="350" as="geometry" />
        </mxCell>
        <mxCell id="ngXh2x4NFbDctlyxZlGq-4" value="" style="rounded=0;whiteSpace=wrap;html=1;rotation=90;" vertex="1" parent="1">
          <mxGeometry x="160" y="470" width="245" height="198.75" as="geometry" />
        </mxCell>
        <mxCell id="ngXh2x4NFbDctlyxZlGq-16" style="edgeStyle=orthogonalEdgeStyle;rounded=0;orthogonalLoop=1;jettySize=auto;html=1;exitX=0.5;exitY=1;exitDx=0;exitDy=0;entryX=0.5;entryY=0;entryDx=0;entryDy=0;" edge="1" parent="1" source="ngXh2x4NFbDctlyxZlGq-5" target="ngXh2x4NFbDctlyxZlGq-7">
          <mxGeometry relative="1" as="geometry" />
        </mxCell>
        <mxCell id="ngXh2x4NFbDctlyxZlGq-5" value="" style="rounded=0;whiteSpace=wrap;html=1;" vertex="1" parent="1">
          <mxGeometry x="166.25" y="170" width="232.5" height="30" as="geometry" />
        </mxCell>
        <mxCell id="ngXh2x4NFbDctlyxZlGq-14" style="edgeStyle=orthogonalEdgeStyle;rounded=0;orthogonalLoop=1;jettySize=auto;html=1;exitX=0.75;exitY=0;exitDx=0;exitDy=0;entryX=0.098;entryY=1.067;entryDx=0;entryDy=0;entryPerimeter=0;" edge="1" parent="1" source="ngXh2x4NFbDctlyxZlGq-6" target="ngXh2x4NFbDctlyxZlGq-5">
          <mxGeometry relative="1" as="geometry" />
        </mxCell>
        <mxCell id="ngXh2x4NFbDctlyxZlGq-6" value="" style="rounded=0;whiteSpace=wrap;html=1;" vertex="1" parent="1">
          <mxGeometry x="70" y="260" width="120" height="50" as="geometry" />
        </mxCell>
        <mxCell id="ngXh2x4NFbDctlyxZlGq-7" value="" style="rounded=0;whiteSpace=wrap;html=1;" vertex="1" parent="1">
          <mxGeometry x="250" y="260" width="90" height="60" as="geometry" />
        </mxCell>
        <mxCell id="ngXh2x4NFbDctlyxZlGq-8" value="" style="whiteSpace=wrap;html=1;aspect=fixed;" vertex="1" parent="1">
          <mxGeometry x="105" y="350" width="40" height="40" as="geometry" />
        </mxCell>
        <mxCell id="ngXh2x4NFbDctlyxZlGq-9" value="" style="rounded=0;whiteSpace=wrap;html=1;rotation=90;" vertex="1" parent="1">
          <mxGeometry x="447.5" y="397.5" width="420" height="285" as="geometry" />
        </mxCell>
        <mxCell id="ngXh2x4NFbDctlyxZlGq-10" value="" style="rounded=0;whiteSpace=wrap;html=1;" vertex="1" parent="1">
          <mxGeometry x="572.5" y="170" width="200" height="100" as="geometry" />
        </mxCell>
        <mxCell id="ngXh2x4NFbDctlyxZlGq-11" value="" style="rounded=0;whiteSpace=wrap;html=1;" vertex="1" parent="1">
          <mxGeometry x="603.75" y="360" width="107.5" height="60" as="geometry" />
        </mxCell>
        <mxCell id="ngXh2x4NFbDctlyxZlGq-12" value="" style="rounded=0;whiteSpace=wrap;html=1;rotation=90;" vertex="1" parent="1">
          <mxGeometry x="581.88" y="475" width="151.25" height="130" as="geometry" />
        </mxCell>
        <mxCell id="ngXh2x4NFbDctlyxZlGq-13" value="" style="rounded=0;whiteSpace=wrap;html=1;" vertex="1" parent="1">
          <mxGeometry x="580.63" y="660" width="152.5" height="50" as="geometry" />
        </mxCell>
        <mxCell id="ngXh2x4NFbDctlyxZlGq-15" value="addr" style="text;html=1;align=center;verticalAlign=middle;resizable=0;points=[];autosize=1;strokeColor=none;fillColor=none;" vertex="1" parent="1">
          <mxGeometry x="160" y="170" width="50" height="30" as="geometry" />
        </mxCell>
        <mxCell id="ngXh2x4NFbDctlyxZlGq-18" value="data" style="text;html=1;align=center;verticalAlign=middle;resizable=0;points=[];autosize=1;strokeColor=none;fillColor=none;" vertex="1" parent="1">
          <mxGeometry x="257.5" y="170" width="50" height="30" as="geometry" />
        </mxCell>
        <mxCell id="ngXh2x4NFbDctlyxZlGq-20" value="rd" style="text;html=1;align=center;verticalAlign=middle;resizable=0;points=[];autosize=1;strokeColor=none;fillColor=none;" vertex="1" parent="1">
          <mxGeometry x="220" y="170" width="30" height="30" as="geometry" />
        </mxCell>
      </root>
    </mxGraphModel>
  </diagram>
</mxfile>
